<svg xmlns="http://www.w3.org/2000/svg" viewBox="0 0 1600 1000"><defs><linearGradient id="g1" x1="0" y1="0" x2="1" y2="1"><stop stop-color="#070c18"/><stop offset=".5" stop-color="#142652"/><stop offset="1" stop-color="#3b8091"/></linearGradient><linearGradient id="g2" x1="0" y1="0" x2="0" y2="1"><stop stop-color="#a9f1f2" stop-opacity=".7"/><stop offset="1" stop-color="#a9f1f2" stop-opacity="0"/></linearGradient></defs><rect width="1600" height="1000" fill="url(#g1)"/><path d="M0 650 300 460 650 700 910 420 1600 670V1000H0Z" fill="#0a1122" opacity=".85"/><rect x="0" y="0" width="1600" height="1000" fill="url(#g2)" opacity=".18"/><g stroke="#97e6eb" stroke-opacity=".22"><path d="M0 160H1600M0 300H1600M0 440H1600M0 580H1600M0 720H1600"/><path d="M180 0 120 1000M430 0 480 1000M700 0 780 1000M980 0 1070 1000M1280 0 1360 1000"/></g><g fill="#bff4f4" opacity=".8"><circle cx="250" cy="520" r="5"/><circle cx="650" cy="690" r="7"/><circle cx="1020" cy="430" r="5"/><circle cx="1280" cy="580" r="8"/><circle cx="1450" cy="330" r="4"/></g><path d="M1120 180c130 70 210 175 250 320" fill="none" stroke="#d8ffff" stroke-opacity=".2" stroke-width="2"/><text x="90" y="160" fill="#e7ffff" font-family="Arial" font-size="24" letter-spacing="7">ICAEBMS 2026</text></svg>
